<svg width="38" height="38" viewBox="0 0 38 38" fill="none" xmlns="http://www.w3.org/2000/svg">
<g id="elements">
<path id="Rectangle 116" d="M2.375 19C2.375 11.1629 2.375 7.24435 4.80967 4.80967C7.24435 2.375 11.1629 2.375 19 2.375C26.8371 2.375 30.7556 2.375 33.1903 4.80967C35.625 7.24435 35.625 11.1629 35.625 19C35.625 26.8371 35.625 30.7556 33.1903 33.1903C30.7556 35.625 26.8371 35.625 19 35.625C11.1629 35.625 7.24435 35.625 4.80967 33.1903C2.375 30.7556 2.375 26.8371 2.375 19Z" stroke="#ECFFFC" stroke-width="3" stroke-linecap="round" stroke-linejoin="round"/>
<path id="Vector" d="M35.625 21.625H27.0051C25.5314 21.625 24.3735 22.8563 23.724 24.1576C23.0185 25.5715 21.6055 26.875 19 26.875C16.3945 26.875 14.9815 25.5715 14.2759 24.1576C13.6265 22.8563 12.4686 21.625 10.9949 21.625L2.375 21.625" stroke="#ECFFFC" stroke-width="3" stroke-linejoin="round"/>
</g>
</svg>
