<svg width="38" height="38" viewBox="0 0 38 38" fill="none" xmlns="http://www.w3.org/2000/svg">
<g id="elements">
<path id="Rectangle 2400" d="M1.5 32.125C1.5 30.0626 1.5 29.0314 2.26884 28.3907C3.03769 27.75 4.27513 27.75 6.75 27.75C9.22487 27.75 10.4623 27.75 11.2312 28.3907C12 29.0314 12 30.0626 12 32.125C12 34.1874 12 35.2186 11.2312 35.8593C10.4623 36.5 9.22487 36.5 6.75 36.5C4.27513 36.5 3.03769 36.5 2.26884 35.8593C1.5 35.2186 1.5 34.1874 1.5 32.125Z" stroke="#ECFFFC" stroke-width="3"/>
<path id="Rectangle 2401" d="M26 32.125C26 30.0626 26 29.0314 26.7688 28.3907C27.5377 27.75 28.7751 27.75 31.25 27.75C33.7249 27.75 34.9623 27.75 35.7312 28.3907C36.5 29.0314 36.5 30.0626 36.5 32.125C36.5 34.1874 36.5 35.2186 35.7312 35.8593C34.9623 36.5 33.7249 36.5 31.25 36.5C28.7751 36.5 27.5377 36.5 26.7688 35.8593C26 35.2186 26 34.1874 26 32.125Z" stroke="#ECFFFC" stroke-width="3"/>
<path id="Rectangle 2402" d="M31.25 27.75C31.25 23.4065 29.9484 22.5 23.7115 22.5H14.2885C8.05164 22.5 6.75 23.4065 6.75 27.75" stroke="#ECFFFC" stroke-width="3" stroke-linecap="round" stroke-linejoin="round"/>
<path id="Vector" d="M19 9.375L20.75 6.75M26.875 9.375C26.875 13.7242 23.3492 17.25 19 17.25C14.6508 17.25 11.125 13.7242 11.125 9.375C11.125 5.02576 14.6508 1.5 19 1.5C23.3492 1.5 26.875 5.02576 26.875 9.375Z" stroke="#ECFFFC" stroke-width="3" stroke-linecap="round"/>
</g>
</svg>
