<svg width="38" height="38" viewBox="0 0 38 38" fill="none" xmlns="http://www.w3.org/2000/svg">
<g id="elements">
<path id="Vector" d="M1.5 17.25C5.58048 12.9762 11.3757 12.775 15.5 17.25M12.8664 5.875C12.8664 8.29125 10.9049 10.25 8.48518 10.25C6.06549 10.25 4.10394 8.29125 4.10394 5.875C4.10394 3.45875 6.06549 1.5 8.48518 1.5C10.9049 1.5 12.8664 3.45875 12.8664 5.875Z" stroke="#ECFFFC" stroke-width="3" stroke-linecap="round"/>
<path id="Vector_2" d="M22.5 36.5C26.5805 32.2262 32.3757 32.025 36.5 36.5M33.8664 25.125C33.8664 27.5412 31.9049 29.5 29.4852 29.5C27.0655 29.5 25.1039 27.5412 25.1039 25.125C25.1039 22.7088 27.0655 20.75 29.4852 20.75C31.9049 20.75 33.8664 22.7088 33.8664 25.125Z" stroke="#ECFFFC" stroke-width="3" stroke-linecap="round"/>
<path id="Vector_3" d="M3.25 22.5C3.25 29.2725 8.7275 34.75 15.5 34.75L13.75 31.25" stroke="#ECFFFC" stroke-width="3" stroke-linecap="round" stroke-linejoin="round"/>
<path id="Vector 7354" d="M24.25 3.25L34.75 3.25M24.25 8.5L34.75 8.5M24.25 13.75L30.375 13.75" stroke="#ECFFFC" stroke-width="3" stroke-linecap="round" stroke-linejoin="round"/>
</g>
</svg>
