<svg width="34" height="34" viewBox="0 0 34 34" fill="none" xmlns="http://www.w3.org/2000/svg">
<g id="Group">
<path id="Vector" d="M1 0.833252H3.16833C5.145 0.833252 6.13333 0.833252 6.80167 1.45159C7.47167 2.07159 7.60167 3.10492 7.86333 5.17325L9.74333 20.0483C10.0917 22.8049 10.265 24.1816 11.1583 25.0082C12.0517 25.8332 13.3683 25.8333 16.0033 25.8333H32.6667" stroke="#D34843" stroke-width="1.5" stroke-linecap="round" stroke-linejoin="round"/>
<path id="Vector_2" d="M15.1667 32.5C16.5475 32.5 17.6667 31.3807 17.6667 30C17.6667 28.6193 16.5475 27.5 15.1667 27.5C13.786 27.5 12.6667 28.6193 12.6667 30C12.6667 31.3807 13.786 32.5 15.1667 32.5Z" stroke="#D34843" stroke-width="1.5" stroke-linecap="round" stroke-linejoin="round"/>
<path id="Vector_3" d="M26.8333 32.5C28.214 32.5 29.3333 31.3807 29.3333 30C29.3333 28.6193 28.214 27.5 26.8333 27.5C25.4525 27.5 24.3333 28.6193 24.3333 30C24.3333 31.3807 25.4525 32.5 26.8333 32.5Z" stroke="#D34843" stroke-width="1.5" stroke-linecap="round" stroke-linejoin="round"/>
<path id="Vector_4" d="M23.5 9.1665H25.1667M26 20.8332H22.6667C19.5233 20.8332 17.9533 20.8332 16.9767 19.8565C16 18.8798 16 17.3098 16 14.1665V10.8332C16 7.68984 16 6.11984 16.9767 5.14317C17.9533 4.1665 19.5233 4.1665 22.6667 4.1665H26C29.1433 4.1665 30.7133 4.1665 31.69 5.14317C32.6667 6.11984 32.6667 7.68984 32.6667 10.8332V14.1665C32.6667 17.3098 32.6667 18.8798 31.69 19.8565C30.7133 20.8332 29.1433 20.8332 26 20.8332Z" stroke="#D34843" stroke-width="1.5" stroke-linecap="round" stroke-linejoin="round"/>
</g>
</svg>
