<svg width="22" height="22" viewBox="0 0 22 22" fill="none" xmlns="http://www.w3.org/2000/svg">
<g id="elements">
<path id="Subtract" fill-rule="evenodd" clip-rule="evenodd" d="M10.9428 0.75H11.0572C13.2479 0.749987 14.9686 0.749977 16.312 0.930593C17.6886 1.11568 18.7809 1.50271 19.6391 2.36091C20.4973 3.21911 20.8843 4.31137 21.0694 5.68802C21.25 7.03144 21.25 8.75214 21.25 10.9428V11.0572C21.25 13.2479 21.25 14.9686 21.0694 16.312C20.8843 17.6886 20.4973 18.7809 19.6391 19.6391C18.7809 20.4973 17.6886 20.8843 16.312 21.0694C14.9686 21.25 13.2479 21.25 11.0572 21.25H10.9428C8.7521 21.25 7.03144 21.25 5.68802 21.0694C4.31137 20.8843 3.21911 20.4973 2.36091 19.6391C1.50272 18.7809 1.11568 17.6886 0.930594 16.312C0.749977 14.9686 0.749987 13.2479 0.75 11.0572V11.0572V10.9428V10.9428C0.749987 8.75211 0.749977 7.03144 0.930594 5.68802C1.11568 4.31137 1.50272 3.21911 2.36091 2.36091C3.21911 1.50271 4.31137 1.11568 5.68802 0.930593C7.03143 0.749977 8.75214 0.749987 10.9428 0.75ZM7.00019 9.5C7.00019 8.94771 6.55248 8.5 6.00019 8.5C5.44791 8.5 5.00019 8.94771 5.00019 9.5L5.00019 16C5.00019 16.5523 5.44791 17 6.00019 17C6.55248 17 7.00019 16.5523 7.00019 16L7.00019 9.5ZM10.0002 8C10.4056 8 10.7546 8.2412 10.9116 8.58791C11.5195 8.215 12.2347 8 13.0002 8C15.2093 8 17.0002 9.79086 17.0002 12V16C17.0002 16.5523 16.5525 17 16.0002 17C15.4479 17 15.0002 16.5523 15.0002 16L15.0002 12C15.0002 10.8954 14.1048 10 13.0002 10C11.8956 10 11.0002 10.8954 11.0002 12L11.0002 16C11.0002 16.5523 10.5525 17 10.0002 17C9.44791 17 9.00019 16.5523 9.00019 16L9.00019 9C9.00019 8.44771 9.44791 8 10.0002 8ZM7.25801 6C7.25801 6.69036 6.69836 7.25 6.00801 7.25H5.99902C5.30867 7.25 4.74902 6.69036 4.74902 6C4.74902 5.30964 5.30867 4.75 5.99902 4.75H6.00801C6.69836 4.75 7.25801 5.30964 7.25801 6Z" fill="#CBCBD0"/>
</g>
</svg>
