<svg width="247" height="160" viewBox="0 0 247 160" fill="none" xmlns="http://www.w3.org/2000/svg">
<g clip-path="url(#clip0_15335_636)">
<path opacity="0.43" d="M41.4825 94.6719L69.7913 159.928H53.4414L47.5553 145.852H21.8623L15.9764 159.928H0L26.4695 98.302C26.9323 97.2246 27.7017 96.3064 28.6824 95.6611C29.6631 95.0158 30.812 94.6719 31.9868 94.6719H41.4825ZM42.3233 134.199L34.6621 115.274L27.0944 134.199H42.3233Z" fill="#443F3F"/>
<path d="M47.4519 90.9795L75.7606 156.236H59.4108L53.5247 142.159H27.8317L21.9458 156.236H5.96936L32.4389 94.6096C32.9016 93.5322 33.671 92.614 34.6518 91.9687C35.6325 91.3234 36.7814 90.9795 37.9561 90.9795H47.4519ZM48.2926 130.506L40.6315 111.582L33.0638 130.506H48.2926Z" fill="#AF1920"/>
<path d="M149.473 156.422H127.424L96.8722 132.09V156.422H80.5224V97.1084C80.5224 95.5321 81.15 94.0204 82.267 92.9058C83.3841 91.7912 84.8991 91.165 86.4788 91.165H96.8722V120.251L123.406 91.165H144.334L111.447 126.217L149.473 156.422Z" fill="#AF1920"/>
<path d="M171.523 91.165V156.422H155.079V96.9387C155.079 95.4074 155.689 93.9389 156.774 92.8561C157.859 91.7733 159.331 91.165 160.866 91.165H171.523Z" fill="#AF1920"/>
<path d="M230.569 91.1651H246.92V156.422H230.943L193.478 114.657L193.758 156.422H177.128V97.177C177.128 95.5826 177.763 94.0534 178.893 92.9259C180.023 91.7984 181.555 91.165 183.153 91.165H192.544L230.569 133.209V91.1651Z" fill="#AF1920"/>
<path d="M97.2788 81.0033H61.3615L115.468 5.71793C116.74 3.94879 118.415 2.50735 120.356 1.513C122.297 0.518654 124.447 -9.6459e-08 126.629 0H162.547L108.44 75.2854C107.168 77.0545 105.493 78.496 103.552 79.4903C101.611 80.4847 99.4606 81.0033 97.2788 81.0033Z" fill="#AF1920"/>
<path d="M201.315 81.0037H168.493C164.716 81.0037 161.185 79.3039 159.066 76.4659L130.449 38.126H163.272C167.049 38.126 170.58 39.8259 172.698 42.6638L201.315 81.0037Z" fill="#AF1920"/>
</g>
<defs>
<clipPath id="clip0_15335_636">
<rect width="247" height="160" fill="white"/>
</clipPath>
</defs>
</svg>
