<svg width="22" height="21" viewBox="0 0 22 21" fill="none" xmlns="http://www.w3.org/2000/svg">
<g id="elements">
<path id="Subtract" fill-rule="evenodd" clip-rule="evenodd" d="M10.9428 0.25H11.0572C13.2479 0.249987 14.9686 0.249977 16.312 0.430593C17.6886 0.615681 18.7809 1.00271 19.6391 1.86091C20.4973 2.71911 20.8843 3.81137 21.0694 5.18802C21.25 6.53144 21.25 8.25214 21.25 10.4428V10.5572C21.25 12.7479 21.25 14.4686 21.0694 15.812C20.8843 17.1886 20.4973 18.2809 19.6391 19.1391C18.7809 19.9973 17.6886 20.3843 16.312 20.5694C14.9686 20.75 13.2479 20.75 11.0572 20.75H10.9428C8.7521 20.75 7.03144 20.75 5.68802 20.5694C4.31137 20.3843 3.21911 19.9973 2.36091 19.1391C1.50272 18.2809 1.11568 17.1886 0.930594 15.812C0.749977 14.4686 0.749987 12.7479 0.75 10.5572V10.5572V10.4428V10.4428C0.749987 8.25211 0.749977 6.53144 0.930594 5.18802C1.11568 3.81137 1.50272 2.71911 2.36091 1.86091C3.21911 1.00271 4.31137 0.615681 5.68802 0.430593C7.03143 0.249977 8.75214 0.249987 10.9428 0.25ZM13.3077 4.92857C13.3077 4.41574 12.8944 4 12.3846 4C11.8748 4 11.4615 4.41574 11.4615 4.92857V12.8214C11.4615 14.1035 10.4283 15.1429 9.15385 15.1429C7.87934 15.1429 6.84615 14.1035 6.84615 12.8214C6.84615 11.5393 7.87934 10.5 9.15385 10.5C9.26668 10.5 9.3771 10.5081 9.48468 10.5236C9.98934 10.5962 10.457 10.2435 10.5292 9.73582C10.6013 9.22816 10.2508 8.75774 9.74609 8.68513C9.55219 8.65723 9.35442 8.64286 9.15385 8.64286C6.85974 8.64286 5 10.5137 5 12.8214C5 15.1292 6.85974 17 9.15385 17C11.448 17 13.3077 15.1292 13.3077 12.8214V8.19915C14.1074 8.76172 15.0922 9.10714 16.0769 9.10714C16.5867 9.10714 17 8.69141 17 8.17857C17 7.66574 16.5867 7.25 16.0769 7.25C15.421 7.25 14.7034 6.97606 14.1534 6.51397C13.6041 6.05253 13.3077 5.48166 13.3077 4.92857Z" fill="#CBCBD0"/>
</g>
</svg>
