<svg width="42" height="32" viewBox="0 0 42 32" fill="none" xmlns="http://www.w3.org/2000/svg">
<g id="Users">
<path id="Vector" d="M36.3543 26.5C37.6656 26.5 38.7086 25.6748 39.6451 24.521C41.5621 22.159 38.4146 20.2715 37.2141 19.3471C35.9938 18.4073 34.6312 17.875 33.2498 17.75M31.4998 14.25C33.916 14.25 35.8748 12.2912 35.8748 9.875C35.8748 7.45875 33.916 5.5 31.4998 5.5" stroke="#ECFFFC" stroke-width="3" stroke-linecap="round"/>
<path id="Vector_2" d="M5.64518 26.5C4.3339 26.5 3.29092 25.6748 2.35446 24.521C0.437411 22.159 3.58493 20.2715 4.78539 19.3471C6.00571 18.4073 7.36827 17.875 8.74976 17.75M9.62476 14.25C7.20851 14.25 5.24976 12.2912 5.24976 9.875C5.24976 7.45875 7.20851 5.5 9.62476 5.5" stroke="#ECFFFC" stroke-width="3" stroke-linecap="round"/>
<path id="Vector_3" d="M14.1464 21.4446C12.3583 22.5502 7.66998 24.8079 10.5255 27.633C11.9204 29.013 13.4739 30 15.4271 30L26.5724 30C28.5256 30 30.0791 29.013 31.474 27.633C34.3295 24.8079 29.6412 22.5502 27.8531 21.4446C23.66 18.8518 18.3395 18.8518 14.1464 21.4446Z" stroke="#ECFFFC" stroke-width="3" stroke-linecap="round" stroke-linejoin="round"/>
<path id="Ellipse 1381" d="M27.1248 8.125C27.1248 11.5077 24.3825 14.25 20.9998 14.25C17.617 14.25 14.8748 11.5077 14.8748 8.125C14.8748 4.74226 17.617 2 20.9998 2C24.3825 2 27.1248 4.74226 27.1248 8.125Z" stroke="#ECFFFC" stroke-width="3"/>
</g>
</svg>
