<svg width="22" height="18" viewBox="0 0 22 18" fill="none" xmlns="http://www.w3.org/2000/svg">
<g id="elements">
<path id="Vector (Stroke)" d="M10.2582 5.23767C10.1447 2.63601 12.2575 0.25 15 0.25C16.0745 0.25 17.067 0.607547 17.8629 1.20937L20.8895 0.758197C21.1672 0.71679 21.4449 0.834036 21.6089 1.06201C21.7729 1.28998 21.7958 1.59048 21.6682 1.84067L19.7346 5.63307C19.4044 12.3809 13.8294 17.75 7.00005 17.75C4.70521 17.75 2.52189 17.2468 0.624505 16.1492C0.342842 15.9863 0.198373 15.6603 0.26684 15.3422C0.335306 15.0241 0.601087 14.7864 0.924841 14.7538C1.62749 14.683 2.68928 14.4806 3.55591 14.165C3.99281 14.0059 4.33383 13.8344 4.55154 13.6675C4.5727 13.6513 4.59165 13.6359 4.60862 13.6215C1.5742 10.2838 0.508045 5.17157 1.76751 0.893417C1.85052 0.611446 2.0906 0.403957 2.38162 0.362663C2.67264 0.32137 2.96096 0.453885 3.11913 0.701635C4.72891 3.22305 7.3663 5.09513 10.2582 5.23767Z" fill="#CBCBD0"/>
</g>
</svg>
